<?xml version="1.0" encoding="UTF-8"?>
<svg width="24px" height="24px" viewBox="0 0 24 24" version="1.1" xmlns="http://www.w3.org/2000/svg" xmlns:xlink="http://www.w3.org/1999/xlink">
    <!-- Generator: Sketch 50.2 (55047) - http://www.bohemiancoding.com/sketch -->
    <title>icon / search</title>
    <desc>Created with Sketch.</desc>
    <defs></defs>
    <g id="icon-/-search" stroke="none" stroke-width="1" fill="none" fill-rule="evenodd" opacity="0.4">
        <g id="ic_search_black_24px">
            <polygon id="Shape" points="0 0 24 0 24 24 0 24"></polygon>
            <path d="M15.4440064,13.9507257 L14.6575452,13.9507257 L14.3787995,13.6819351 C15.3544096,12.5470417 15.9417667,11.0736714 15.9417667,9.47088335 C15.9417667,5.8969647 13.044802,3 9.47088335,3 C5.8969647,3 3,5.8969647 3,9.47088335 C3,13.044802 5.8969647,15.9417667 9.47088335,15.9417667 C11.0736714,15.9417667 12.5470417,15.3544096 13.6819351,14.3787995 L13.9507257,14.6575452 L13.9507257,15.4440064 L18.2212222,19.7059619 C18.6118605,20.095819 19.2444797,20.0955024 19.6347276,19.7052545 L19.7052545,19.6347276 C20.0955024,19.2444797 20.095819,18.6118605 19.7059619,18.2212222 L15.4440064,13.9507257 Z M9.47088335,13.9507257 C6.99203727,13.9507257 4.99104103,11.9497294 4.99104103,9.47088335 C4.99104103,6.99203727 6.99203727,4.99104103 9.47088335,4.99104103 C11.9497294,4.99104103 13.9507257,6.99203727 13.9507257,9.47088335 C13.9507257,11.9497294 11.9497294,13.9507257 9.47088335,13.9507257 Z" id="ic_search_black" fill="#222222" fill-rule="nonzero"></path>
        </g>
    </g>
</svg>