<?xml version="1.0" encoding="UTF-8"?>
<svg width="24px" height="24px" viewBox="0 0 24 24" version="1.1" xmlns="http://www.w3.org/2000/svg" xmlns:xlink="http://www.w3.org/1999/xlink">
    <!-- Generator: Sketch 53 (72520) - https://sketchapp.com -->
    <title>icon / share</title>
    <desc>Created with Sketch.</desc>
    <g id="icon-/-share" stroke="none" stroke-width="1" fill="none" fill-rule="evenodd">
        <path d="M13,6.41421356 L13,12 C13,12.5522847 12.5522847,13 12,13 C11.4477153,13 11,12.5522847 11,12 L11,6.41421356 L9.70710678,7.70710678 C9.31658249,8.09763107 8.68341751,8.09763107 8.29289322,7.70710678 C7.90236893,7.31658249 7.90236893,6.68341751 8.29289322,6.29289322 L11.2928932,3.29289322 C11.6834175,2.90236893 12.3165825,2.90236893 12.7071068,3.29289322 L15.7071068,6.29289322 C16.0976311,6.68341751 16.0976311,7.31658249 15.7071068,7.70710678 C15.3165825,8.09763107 14.6834175,8.09763107 14.2928932,7.70710678 L13,6.41421356 Z M4,13 C4,12.4477153 4.44771525,12 5,12 C5.55228475,12 6,12.4477153 6,13 L6,19 L17.9951172,19 L17.9951172,13 C17.9951172,12.4477153 18.4428324,12 18.9951172,12 C19.5474019,12 19.9951172,12.4477153 19.9951172,13 L19.9951172,19 C19.9951172,20.1045695 19.0996867,21 17.9951172,21 L6,21 C4.8954305,21 4,20.1045695 4,19 L4,13 Z" id="ic_share_black" fill="#222222" fill-rule="nonzero"></path>
    </g>
</svg>